<svg xmlns="http://www.w3.org/2000/svg" width="840" height="200" viewBox="0 0 840 200" role="img" aria-label="Market prices over the past month"><rect x="0.5" y="0.5" width="839" height="199" rx="12" fill="#1a1b27" stroke="#2a2e45"/><text x="18" y="26" font-family="'Segoe UI', Ubuntu, 'Helvetica Neue', Arial, sans-serif" font-size="11" letter-spacing="1.5" fill="#565f89">MARKETS · PAST MONTH</text><text x="822" y="26" text-anchor="end" font-family="'Segoe UI', Ubuntu, 'Helvetica Neue', Arial, sans-serif" font-size="11" fill="#565f89">updated Jul 02, 2026 · 19:58 UTC</text><line x1="18" y1="38" x2="822" y2="38" stroke="#2a2e45"/><text x="118.5" y="64" text-anchor="middle" font-family="'Segoe UI', Ubuntu, 'Helvetica Neue', Arial, sans-serif" font-size="14.5" font-weight="600" fill="#c0caf5">S&amp;P 500</text><path d="M36.0,134.0 L36.0,82.0 L43.9,89.5 L51.7,85.4 L59.6,112.3 L67.4,109.4 L75.3,111.9 L83.1,128.0 L91.0,110.9 L98.9,105.9 L106.7,89.4 L114.6,95.2 L122.4,107.5 L130.3,96.7 L138.1,100.4 L146.0,114.8 L153.9,115.8 L161.7,115.9 L169.6,116.3 L177.4,104.7 L185.3,96.8 L193.1,99.0 L201.0,99.2 L201.0,134.0 Z" fill="#f7768e" fill-opacity="0.12"/><polyline points="36.0,82.0 43.9,89.5 51.7,85.4 59.6,112.3 67.4,109.4 75.3,111.9 83.1,128.0 91.0,110.9 98.9,105.9 106.7,89.4 114.6,95.2 122.4,107.5 130.3,96.7 138.1,100.4 146.0,114.8 153.9,115.8 161.7,115.9 169.6,116.3 177.4,104.7 185.3,96.8 193.1,99.0 201.0,99.2" fill="none" stroke="#f7768e" stroke-width="2" stroke-linecap="round" stroke-linejoin="round"/><circle cx="201.0" cy="99.2" r="2.6" fill="#f7768e"/><text x="118.5" y="182" text-anchor="middle" font-family="'Segoe UI', Ubuntu, 'Helvetica Neue', Arial, sans-serif" font-size="12.5" font-weight="600" fill="#f7768e">▼ 1.7%</text><text x="118.5" y="162" text-anchor="middle" font-family="'Segoe UI', Ubuntu, 'Helvetica Neue', Arial, sans-serif" font-size="19" font-weight="700" fill="#c0caf5">7,482</text><line x1="219.0" y1="52" x2="219.0" y2="186" stroke="#2a2e45"/><text x="319.5" y="64" text-anchor="middle" font-family="'Segoe UI', Ubuntu, 'Helvetica Neue', Arial, sans-serif" font-size="14.5" font-weight="600" fill="#c0caf5">NASDAQ</text><path d="M237.0,134.0 L237.0,82.0 L244.9,87.7 L252.7,88.3 L260.6,115.1 L268.4,109.8 L276.3,115.8 L284.1,128.0 L292.0,112.7 L299.9,110.8 L307.7,91.8 L315.6,99.2 L323.4,107.6 L331.3,95.8 L339.1,104.2 L347.0,118.0 L354.9,120.7 L362.7,123.5 L370.6,124.9 L378.4,112.4 L386.3,103.0 L394.1,107.2 L402.0,112.0 L402.0,134.0 Z" fill="#f7768e" fill-opacity="0.12"/><polyline points="237.0,82.0 244.9,87.7 252.7,88.3 260.6,115.1 268.4,109.8 276.3,115.8 284.1,128.0 292.0,112.7 299.9,110.8 307.7,91.8 315.6,99.2 323.4,107.6 331.3,95.8 339.1,104.2 347.0,118.0 354.9,120.7 362.7,123.5 370.6,124.9 378.4,112.4 386.3,103.0 394.1,107.2 402.0,112.0" fill="none" stroke="#f7768e" stroke-width="2" stroke-linecap="round" stroke-linejoin="round"/><circle cx="402.0" cy="112.0" r="2.6" fill="#f7768e"/><text x="319.5" y="182" text-anchor="middle" font-family="'Segoe UI', Ubuntu, 'Helvetica Neue', Arial, sans-serif" font-size="12.5" font-weight="600" fill="#f7768e">▼ 4.6%</text><text x="319.5" y="162" text-anchor="middle" font-family="'Segoe UI', Ubuntu, 'Helvetica Neue', Arial, sans-serif" font-size="19" font-weight="700" fill="#c0caf5">25,840</text><line x1="420.0" y1="52" x2="420.0" y2="186" stroke="#2a2e45"/><text x="520.5" y="64" text-anchor="middle" font-family="'Segoe UI', Ubuntu, 'Helvetica Neue', Arial, sans-serif" font-size="14.5" font-weight="600" fill="#c0caf5">Bitcoin</text><path d="M438.0,134.0 L438.0,82.0 L443.5,97.2 L449.0,98.4 L454.5,114.6 L460.0,115.0 L465.5,101.6 L471.0,102.4 L476.5,110.6 L482.0,111.7 L487.5,99.7 L493.0,99.8 L498.5,94.9 L504.0,87.6 L509.5,84.3 L515.0,88.2 L520.5,94.9 L526.0,103.5 L531.5,99.9 L537.0,95.9 L542.5,101.6 L548.0,97.5 L553.5,104.8 L559.0,114.2 L564.5,121.4 L570.0,119.8 L575.5,120.2 L581.0,122.5 L586.5,119.1 L592.0,128.0 L597.5,119.8 L603.0,111.8 L603.0,134.0 Z" fill="#f7768e" fill-opacity="0.12"/><polyline points="438.0,82.0 443.5,97.2 449.0,98.4 454.5,114.6 460.0,115.0 465.5,101.6 471.0,102.4 476.5,110.6 482.0,111.7 487.5,99.7 493.0,99.8 498.5,94.9 504.0,87.6 509.5,84.3 515.0,88.2 520.5,94.9 526.0,103.5 531.5,99.9 537.0,95.9 542.5,101.6 548.0,97.5 553.5,104.8 559.0,114.2 564.5,121.4 570.0,119.8 575.5,120.2 581.0,122.5 586.5,119.1 592.0,128.0 597.5,119.8 603.0,111.8" fill="none" stroke="#f7768e" stroke-width="2" stroke-linecap="round" stroke-linejoin="round"/><circle cx="603.0" cy="111.8" r="2.6" fill="#f7768e"/><text x="520.5" y="182" text-anchor="middle" font-family="'Segoe UI', Ubuntu, 'Helvetica Neue', Arial, sans-serif" font-size="12.5" font-weight="600" fill="#f7768e">▼ 7.9%</text><text x="520.5" y="162" text-anchor="middle" font-family="'Segoe UI', Ubuntu, 'Helvetica Neue', Arial, sans-serif" font-size="19" font-weight="700" fill="#c0caf5">$61,434</text><line x1="621.0" y1="52" x2="621.0" y2="186" stroke="#2a2e45"/><text x="721.5" y="64" text-anchor="middle" font-family="'Segoe UI', Ubuntu, 'Helvetica Neue', Arial, sans-serif" font-size="14.5" font-weight="600" fill="#c0caf5">Gold</text><path d="M639.0,134.0 L639.0,82.0 L646.9,86.8 L654.7,83.2 L662.6,96.0 L670.4,96.1 L678.3,103.1 L686.1,117.1 L694.0,118.8 L701.9,107.3 L709.7,96.9 L717.6,96.6 L725.4,94.0 L733.3,106.4 L741.1,110.3 L749.0,115.1 L756.9,128.0 L764.7,124.3 L772.6,119.8 L780.4,125.0 L788.3,125.0 L796.1,120.8 L804.0,115.4 L804.0,134.0 Z" fill="#f7768e" fill-opacity="0.12"/><polyline points="639.0,82.0 646.9,86.8 654.7,83.2 662.6,96.0 670.4,96.1 678.3,103.1 686.1,117.1 694.0,118.8 701.9,107.3 709.7,96.9 717.6,96.6 725.4,94.0 733.3,106.4 741.1,110.3 749.0,115.1 756.9,128.0 764.7,124.3 772.6,119.8 780.4,125.0 788.3,125.0 796.1,120.8 804.0,115.4" fill="none" stroke="#f7768e" stroke-width="2" stroke-linecap="round" stroke-linejoin="round"/><circle cx="804.0" cy="115.4" r="2.6" fill="#f7768e"/><text x="721.5" y="182" text-anchor="middle" font-family="'Segoe UI', Ubuntu, 'Helvetica Neue', Arial, sans-serif" font-size="12.5" font-weight="600" fill="#f7768e">▼ 8.1%</text><text x="721.5" y="162" text-anchor="middle" font-family="'Segoe UI', Ubuntu, 'Helvetica Neue', Arial, sans-serif" font-size="19" font-weight="700" fill="#c0caf5">$4,127</text></svg>